<?xml version="1.0" encoding="UTF-8" ?>
<svg width="1024px" height="1024px" viewBox="0 0 1024 1024" version="1.1" xmlns="http://www.w3.org/2000/svg" xmlns:xlink="http://www.w3.org/1999/xlink">
    <!-- Generator: Sketch 50.2 (55047) - http://www.bohemiancoding.com/sketch -->
    <title>app-icon-poolmath</title>
    <desc>Created with Sketch.</desc>
    <defs>
        <path d="M1024,648 C938.666,648 938.666,731.557 853.334,731.557 C768,731.557 768,648 682.666,648 C597.332,648 597.332,731.557 512,731.557 C426.668,731.557 426.666,648 341.334,648 C256,648 256,731.557 170.666,731.557 C85.3540042,731.557 85.3340047,648.039172 0.0600000016,648.000014 L0.06,0.04 L1024,0.04 L1024,648 Z M0.06,815.11 C42.7059991,815.129587 85.3479999,836.015666 115.2,869.421 C136.534,890.31 145.066,898.667 170.666,898.667 C196.266,898.667 204.8,890.31 226.132,869.423 C256,836 294.4,815.11 341.334,815.11 C384,815.11 426.668,836 456.534,869.421 C477.866,890.31 486.4,898.667 512,898.667 C537.6,898.667 546.134,890.31 567.466,869.423 C596.375,834.039 638.893,815.968 681.951,815.968 C715.15,815.968 748.669,826.707 776.532,848.533 C797.866,865.244 810.666,890.31 836.266,898.667 C841.647,900.172 846.752,900.864 851.629,900.864 C873.821,900.864 891.31,886.547 908.8,869.423 C938.666,836 981.334,815.112 1024,815.112 L1024,898.667 C998.4,898.667 989.866,907.023 968.534,927.91 C938.666,961.333 896,982.223 853.334,982.223 C810.668,982.223 768,961.333 738.134,927.91 C716.8,907.023 708.266,898.667 682.666,898.667 C657.066,898.667 648.532,907.023 627.2,927.91 C598.291,963.294 555.772,981.363 512.715,981.365 C479.515,981.366 445.997,970.626 418.134,948.8 C409.6,940.443 401.068,936.267 396.8,927.91 C375.466,907.023 366.934,898.667 341.334,898.667 C315.734,898.667 307.2,907.023 285.868,927.91 C256,961.333 213.334,982.223 170.666,982.223 C128,982.223 85.332,961.333 55.466,927.912 C34.1506743,907.039328 25.6133491,898.680071 0.0600000041,898.667015 L0.06,815.11 Z" id="path-1"></path>
        <linearGradient x1="0.0130769381%" y1="-0.0228524552%" x2="99.9808485%" y2="99.9429665%" id="linearGradient-3">
            <stop stop-color="#4469A4" offset="0%"></stop>
            <stop stop-color="#359FCD" offset="100%"></stop>
        </linearGradient>
        <polygon id="path-4" points="0.06 0.667 1024 0.667 1024 126 0.06 126"></polygon>
        <path d="M0.06,167.110014 L0.06,0 C85.3340047,0.0391716294 85.3540042,83.557 170.666,83.557 C256,83.557 256,0 341.334,0 C426.666,0 426.668,83.557 512,83.557 C597.332,83.557 597.332,0 682.666,0 C768,0 768,83.557 853.334,83.557 C938.666,83.557 938.666,0 1024,0 L1024,167.112 C981.334,167.112 938.666,188 908.8,221.423 C891.31,238.547 873.821,252.864 851.629,252.864 C846.752,252.864 841.647,252.172 836.266,250.667 C810.666,242.31 797.866,217.244 776.532,200.533 C748.669,178.707 715.15,167.968 681.951,167.968 C638.893,167.968 596.375,186.039 567.466,221.423 C546.134,242.31 537.6,250.667 512,250.667 C486.4,250.667 477.866,242.31 456.534,221.421 C426.668,188 384,167.11 341.334,167.11 C294.4,167.11 256,188 226.132,221.423 C204.8,242.31 196.266,250.667 170.666,250.667 C145.066,250.667 136.534,242.31 115.2,221.421 C85.3479999,188.015666 42.7059991,167.129587 0.06,167.110014 Z" id="path-6"></path>
        <linearGradient x1="0.0130769381%" y1="-0.0228524552%" x2="99.9808485%" y2="99.9429665%" id="linearGradient-8">
            <stop stop-color="#5A7EB2" offset="0%"></stop>
            <stop stop-color="#529FCB" offset="100%"></stop>
        </linearGradient>
    </defs>
    <g id="app-icon-poolmath" stroke="none" stroke-width="1" fill="none" fill-rule="evenodd">
        <g id="Group-3">
            <mask id="mask-2" fill="white">
                <use xlink:href="#path-1"></use>
            </mask>
            <g id="Clip-2"></g>
            <polygon id="Fill-1" fill="url(#linearGradient-3)" mask="url(#mask-2)" points="0.06 1024 1024 1024 1024 0.04 0.06 0.04"></polygon>
        </g>
        <g id="Group-6" transform="translate(0.000000, 898.000000)">
            <mask id="mask-5" fill="white">
                <use xlink:href="#path-4"></use>
            </mask>
            <g id="Clip-5"></g>
            <path d="M968.534,29.91 C938.666,63.333 896,84.223 853.334,84.223 C810.668,84.223 768,63.333 738.134,29.91 C716.8,9.023 708.266,0.667 682.666,0.667 C657.066,0.667 648.532,9.023 627.2,29.91 C576,92.577 482.134,100.933 418.134,50.8 C409.6,42.443 401.068,38.267 396.8,29.91 C375.466,9.023 366.934,0.667 341.334,0.667 C315.734,0.667 307.2,9.023 285.868,29.91 C256,63.333 213.334,84.223 170.666,84.223 C128,84.223 85.332,63.333 55.466,29.912 C34.134,9.023 25.6,0.667 0,0.667 L0,126 L1024,126 L1024,0.667 C998.4,0.667 989.866,9.023 968.534,29.91" id="Fill-4" fill="#7CABD0" mask="url(#mask-5)"></path>
        </g>
        <g id="Group-9" transform="translate(0.000000, 648.000000)">
            <mask id="mask-7" fill="white">
                <use xlink:href="#path-6"></use>
            </mask>
            <g id="Clip-8"></g>
            <polygon id="Fill-7" fill="url(#linearGradient-8)" mask="url(#mask-7)" points="0.06 376 1024 376 1024 -647.96 0.06 -647.96"></polygon>
        </g>
    </g>
</svg>
