<?xml version="1.0" encoding="UTF-8" ?>
<svg width="1024px" height="1024px" viewBox="0 0 1024 1024" version="1.1" xmlns="http://www.w3.org/2000/svg" xmlns:xlink="http://www.w3.org/1999/xlink">
    <!-- Generator: Sketch 50.2 (55047) - http://www.bohemiancoding.com/sketch -->
    <title>app-icon-poolmath</title>
    <desc>Created with Sketch.</desc>
    <defs></defs>
    <g id="app-icon-poolmath" stroke="none" stroke-width="1" fill="none" fill-rule="evenodd">
        <g id="Group" transform="translate(210.000000, 210.000000)" fill="#FFFFFE">
            <path d="M219.414,146.5 L167.172,146.5 L167.172,94.259 C167.172,88.481 162.492,83.811 156.724,83.811 C150.957,83.811 146.276,88.481 146.276,94.259 L146.276,146.5 L94.035,146.5 C88.267,146.5 83.586,151.17 83.586,156.948 C83.586,162.726 88.267,167.396 94.035,167.396 L146.276,167.396 L146.276,219.638 C146.276,225.416 150.957,230.086 156.724,230.086 C162.492,230.086 167.172,225.416 167.172,219.638 L167.172,167.396 L219.414,167.396 C225.181,167.396 229.862,162.726 229.862,156.948 C229.862,151.17 225.181,146.5 219.414,146.5" id="Fill-10"></path>
            <path d="M511.966,146.5 L386.586,146.5 C380.818,146.5 376.138,151.17 376.138,156.948 C376.138,162.726 380.818,167.396 386.586,167.396 L511.966,167.396 C517.733,167.396 522.414,162.726 522.414,156.948 C522.414,151.17 517.733,146.5 511.966,146.5" id="Fill-11"></path>
            <path d="M313.448,292.776 L585.104,292.776 L585.104,21.121 L313.448,21.121 L313.448,292.776 Z M313.448,585.327 L585.104,585.327 L585.104,313.673 L313.448,313.673 L313.448,585.327 Z M20.896,585.327 L292.552,585.327 L292.552,313.673 L20.896,313.673 L20.896,585.327 Z M20.896,292.776 L292.552,292.776 L292.552,21.121 L20.896,21.121 L20.896,292.776 Z M313.448,0.224 L0,0.224 L0,606.225 L606,606.225 L606,0.224 L313.448,0.224 Z" id="Fill-12"></path>
            <path d="M386.586,491.293 L511.966,491.293 C517.733,491.293 522.414,486.623 522.414,480.845 C522.414,475.067 517.733,470.396 511.966,470.396 L386.586,470.396 C380.818,470.396 376.138,475.067 376.138,480.845 C376.138,486.623 380.818,491.293 386.586,491.293" id="Fill-13"></path>
            <path d="M386.586,428.604 L511.966,428.604 C517.733,428.604 522.414,423.933 522.414,418.155 C522.414,412.377 517.733,407.707 511.966,407.707 L386.586,407.707 C380.818,407.707 376.138,412.377 376.138,418.155 C376.138,423.933 380.818,428.604 386.586,428.604" id="Fill-14"></path>
            <path d="M216.353,389.872 C212.267,385.786 205.664,385.786 201.579,389.872 L156.724,434.727 L111.87,389.872 C107.784,385.786 101.181,385.786 97.096,389.872 C93.011,393.957 93.011,400.561 97.096,404.646 L141.95,449.5 L97.096,494.354 C93.011,498.439 93.011,505.043 97.096,509.128 C99.133,511.166 101.808,512.189 104.483,512.189 C107.158,512.189 109.833,511.166 111.87,509.128 L156.724,464.273 L201.579,509.128 C203.616,511.166 206.291,512.189 208.965,512.189 C211.64,512.189 214.315,511.166 216.353,509.128 C220.438,505.043 220.438,498.439 216.353,494.354 L171.498,449.5 L216.353,404.646 C220.438,400.561 220.438,393.957 216.353,389.872" id="Fill-15"></path>
        </g>
    </g>
</svg>